<svg width="1920" height="1528" viewBox="0 0 1920 1528" fill="none" xmlns="http://www.w3.org/2000/svg">
<g clip-path="url(#clip0_378_2)">
<path d="M-136 1178.11V191C-13.3646 288.297 122.131 375.27 270.273 458.354C488.516 580.706 718.204 676.881 960 744.798V1524.91C563.167 1473.69 198.416 1356.98 -136 1178.11Z" fill="#93CADF"/>
<path d="M-136 1178.11V191C-13.3646 288.297 122.131 375.27 270.273 458.354C488.516 580.706 718.204 676.881 960 744.798V1524.91C563.167 1473.69 198.416 1356.98 -136 1178.11Z" fill="#93CADF"/>
<path d="M960 575.2C1381.81 422.95 1745.33 182.975 2056 -135V856.375C1854.71 982.255 1636.3 1084.84 1400.25 1163.49C1254.85 1211.94 1108.03 1246.09 960 1268.27L960 575.2Z" fill="#93CADF"/>
<path d="M960 575.2C1381.81 422.95 1745.33 182.975 2056 -135V856.375C1854.71 982.255 1636.3 1084.84 1400.25 1163.49C1254.85 1211.94 1108.03 1246.09 960 1268.27L960 575.2Z" fill="#93CADF"/>
<path d="M960 1035.2C1381.81 882.95 1745.33 642.975 2056 325V856.375C1854.71 982.255 1636.3 1084.84 1400.25 1163.49C1254.85 1211.94 1108.03 1246.09 960 1268.27L960 1035.2Z" fill="#93CADF"/>
<path d="M960 1035.2C1381.81 882.95 1745.33 642.975 2056 325V856.375C1854.71 982.255 1636.3 1084.84 1400.25 1163.49C1254.85 1211.94 1108.03 1246.09 960 1268.27L960 1035.2Z" fill="url(#paint0_linear_378_2)" fill-opacity="0.8"/>
<path d="M-136 1181.47V714.362C-13.3646 811.659 122.131 898.633 270.273 981.716C488.516 1104.07 718.204 1200.24 960 1268.16V1528.27C563.167 1477.05 198.416 1360.34 -136 1181.47Z" fill="#93CADF"/>
<path d="M-136 1181.47V714.362C-13.3646 811.659 122.131 898.633 270.273 981.716C488.516 1104.07 718.204 1200.24 960 1268.16V1528.27C563.167 1477.05 198.416 1360.34 -136 1181.47Z" fill="url(#paint1_linear_378_2)" fill-opacity="0.8"/>
</g>
<defs>
<linearGradient id="paint0_linear_378_2" x1="1440" y1="1277.62" x2="1440" y2="392.536" gradientUnits="userSpaceOnUse">
<stop stop-color="#93CADF"/>
<stop offset="1" stop-color="white"/>
</linearGradient>
<linearGradient id="paint1_linear_378_2" x1="1541.11" y1="1911.4" x2="366.662" y2="439.625" gradientUnits="userSpaceOnUse">
<stop stop-color="white"/>
<stop offset="1" stop-color="#93CADF"/>
</linearGradient>
<clipPath id="clip0_378_2">
<rect width="1920" height="1528" fill="white"/>
</clipPath>
</defs>
</svg>
